<svg width="20" height="19" viewBox="0 0 20 19" fill="none" xmlns="http://www.w3.org/2000/svg">
<path d="M9.30176 0.708984C9.55981 0.0971557 10.4402 0.0971542 10.6982 0.708984L12.7275 5.52832C12.9093 5.95969 13.3191 6.25297 13.7871 6.29004L19.0527 6.70703C19.7278 6.7605 19.9907 7.58507 19.4854 8.0127L15.4736 11.4082C15.1157 11.7112 14.9577 12.1875 15.0674 12.6426L16.293 17.7197C16.4465 18.3557 15.7431 18.8768 15.1621 18.5264L10.6533 15.8057C10.252 15.5636 9.74804 15.5636 9.34668 15.8057L4.83789 18.5264C4.25686 18.8768 3.55347 18.3557 3.70703 17.7197L4.93262 12.6426C5.04233 12.1875 4.88436 11.7112 4.52637 11.4082L0.514648 8.0127C0.00933908 7.58507 0.272217 6.7605 0.947266 6.70703L6.21289 6.29004C6.68094 6.25297 7.0908 5.95973 7.27246 5.52832L9.30176 0.708984Z" fill="url(#paint0_linear_12551_13909)" stroke="url(#paint1_linear_12551_13909)" stroke-width="0.5"/>
<defs>
<linearGradient id="paint0_linear_12551_13909" x1="9.99998" y1="0" x2="9.99998" y2="18.8889" gradientUnits="userSpaceOnUse">
<stop stop-color="#FF3337"/>
<stop offset="1" stop-color="#CE1215"/>
</linearGradient>
<linearGradient id="paint1_linear_12551_13909" x1="9.99998" y1="0" x2="9.99998" y2="18.8889" gradientUnits="userSpaceOnUse">
<stop stop-color="white" stop-opacity="0.25"/>
<stop offset="1" stop-color="white" stop-opacity="0"/>
</linearGradient>
</defs>
</svg>
